<svg width="17" height="17">
  <path fill="#87BBFD" class="hover-fillLight" d="M.945 1.998h3.632C6.744 1.998 8.5 3.005 8.5 4.83v11.583c-.512 0-1.015-.337-1.33-.59-1.03-.828-3.057-.828-5.222-.828H.945A.944.944 0 0 1 0 14.052V2.944C0 2.422.423 2 .945 2z"></path>
  <path fill="#6772E5" class="hover-fillDark" d="M16.055 1.998h-3.632C10.257 1.998 8.5 3.005 8.5 4.83v11.583c.512 0 1.015-.337 1.33-.59 1.03-.828 3.057-.828 5.222-.828h1.003A.944.944 0 0 0 17 14.05V2.945A.944.944 0 0 0 16.055 2z"></path>
</svg>
