<svg xmlns="http://www.w3.org/2000/svg" viewBox="0 0 21 15"><defs><style>.a{fill:#f6f9fc;}.b{fill:#8898aa;opacity:0.2;}.c{fill:#e25950;}.d{fill:#43458b;}</style></defs><g transform="translate(-103 -35)"><path class="a" d="M123,42V37a1,1,0,0,0-1-1H105a.981.981,0,0,0-.325.066L114,42Zm-19.335,7.48a1.991,1.991,0,0,0,.6.375,2,2,0,0,1-.6-.375Z"/><path class="b" d="M103.665,49.48a1.991,1.991,0,0,0,.6.375,2,2,0,0,1-.6-.375Z"/><path class="a" d="M122,35H105a1.982,1.982,0,0,0-1.29.484.788.788,0,0,1,.135.054l.83.528A.981.981,0,0,1,105,36h17a1,1,0,0,1,1,1v5h1V37A2,2,0,0,0,122,35Z"/><path class="b" d="M122,35H105a1.982,1.982,0,0,0-1.29.484.788.788,0,0,1,.135.054l.83.528A.981.981,0,0,1,105,36h17a1,1,0,0,1,1,1v5h1V37A2,2,0,0,0,122,35Z"/><path class="c" d="M105,50h0a1.988,1.988,0,0,1-.739-.145A1.966,1.966,0,0,0,105,50Zm17,0h0A1.991,1.991,0,0,0,124,48v0A2,2,0,0,1,122,50Z"/><path class="c" d="M123,42h-9l-9.456,6.877-.735.535a.774.774,0,0,1-.143.067A1.982,1.982,0,0,0,105,50h17a2,2,0,0,0,2-2V42Z"/><path class="d" d="M103.04,48.4c-.008-.04-.006-.085-.012-.128.006.043,0,.087.013.128Zm.035.111a1.99,1.99,0,0,0,.59.966A1.994,1.994,0,0,1,103.075,48.514ZM103,48v0a1.958,1.958,0,0,0,.028.273A1.971,1.971,0,0,1,103,48Zm.075.514c-.01-.037-.026-.072-.034-.11C103.049,48.442,103.065,48.477,103.075,48.514Z"/><path class="d" d="M104.675,36.066l-.83-.528a.788.788,0,0,0-.136-.054A1.986,1.986,0,0,0,103,37V48a1.971,1.971,0,0,0,.028.275c.006.043,0,.087.013.128s.024.074.034.111a1.994,1.994,0,0,0,.591.965.775.775,0,0,0,.143-.067l.735-.535L114,42Z"/></g></svg>