<svg xmlns="http://www.w3.org/2000/svg" viewBox="0 0 21 15"><defs><style>.a{fill:#45b2e8;}.b{fill:#f6f9fc;}.c{fill:#8898aa;opacity:0.2;}</style></defs><g transform="translate(-258 -35)"><path class="a" d="M259.995,35A2,2,0,0,0,258,37.005V40h21V37.005A2.006,2.006,0,0,0,277.005,35Z"/><path class="b" d="M258,44v4a2,2,0,0,0,2,2h17.01a2,2,0,0,0,2-2V44Z"/><path class="c" d="M277,50H260a2,2,0,0,1-2-2V42h1v6a1,1,0,0,0,1,1h17a1,1,0,0,0,1-1V42h1v6A2,2,0,0,1,277,50Z"/><path d="M258,40h21v5H258Z"/></g></svg>