<svg xmlns="http://www.w3.org/2000/svg" viewBox="0 0 21 15"><defs><style>.a{fill:#24b47e;}.b{fill:#e25950;}.c{fill:#fcd669;}.d{fill:#f6f9fc;}</style></defs><path class="a" d="M8,15H2a2.006,2.006,0,0,1-2-2V2A2.006,2.006,0,0,1,2,0H8Z"/><path class="b" d="M19,15H7V0H19a2.006,2.006,0,0,1,2,2V13A2.006,2.006,0,0,1,19,15Z"/><path class="c" d="M10,7.5A3.5,3.5,0,1,0,6.5,11,3.478,3.478,0,0,0,10,7.5Z"/><path class="b" d="M6.4,5A2.5,2.5,0,1,1,4,7.6V7.5A2.456,2.456,0,0,1,6.4,5Z"/><path class="d" d="M5.5,6h2V8a.945.945,0,0,1-1,1,.945.945,0,0,1-1-1Z"/></svg>