<svg xmlns="http://www.w3.org/2000/svg" viewBox="0 0 21 15"><defs><style>.a{fill:#f6f9fc;}.b{fill:none;stroke:#dfe5eb;}.c{fill:#43458b;}.d{fill:#e25950;}</style></defs><g transform="translate(-10 -135)"><path class="a" d="M11.995,135A2,2,0,0,0,10,137v4H31v-4a2,2,0,0,0-1.995-2Z"/><path class="b" d="M10.5,140.5h20V137a1.5,1.5,0,0,0-1.5-1.5H11.995A1.5,1.5,0,0,0,10.5,137Z"/><path class="c" d="M10,140H31v5H10Z"/><path class="d" d="M10,145v2.995A2.006,2.006,0,0,0,12,150h17.01a2,2,0,0,0,2-2v-3Z"/><g transform="translate(13 139)"><path class="d" d="M2.5,7h0A2.476,2.476,0,0,1,0,4.5V0H5V4.5A2.476,2.476,0,0,1,2.5,7Z"/><path class="a" d="M2,4.9H3V3.8H4.1v-1H3V2.2H4.1v-1H3V.5H2v.7H.9v1H2v.5H.9v1H2Z"/><path class="c" d="M2.5,7A2.613,2.613,0,0,0,4.8,5.6a3.891,3.891,0,0,0-2.3-.7,3.891,3.891,0,0,0-2.3.7A2.613,2.613,0,0,0,2.5,7Z"/></g></g></svg>