<svg xmlns="http://www.w3.org/2000/svg" viewBox="0 0 21 15"><defs><style>.a{fill:#fcd669;}.b,.d{fill:#e25950;}.c{fill:#f6f9fc;}.d{opacity:0.5;}</style></defs><path class="a" d="M0,3H21v9H0Z"/><path class="b" d="M0,4V2A2.006,2.006,0,0,1,2,0H19a2.006,2.006,0,0,1,2,2V4ZM19,15H2a2.006,2.006,0,0,1-2-2V11H21v2A2.006,2.006,0,0,1,19,15Z"/><path class="c" d="M5,5H7V7.5H5Z"/><path class="d" d="M5,10A2.006,2.006,0,0,1,3,8V7.5H5Z"/><path class="b" d="M5,10V7.5H7V8A2.006,2.006,0,0,1,5,10ZM3,5H5V7.5H3Z"/></svg>