<svg xmlns="http://www.w3.org/2000/svg" viewBox="0 0 21 15"><defs><style>.a{fill:#43458b;}.b{fill:#f6f9fc;}.c{fill:#e25950;}</style></defs><path class="a" d="M20.9,13.5H18.5V15H2.5V13.5H.1A.9.9,0,0,1,0,13V2a.9.9,0,0,1,.1-.5H2.5V0h16V1.5h2.4A.9.9,0,0,1,21,2V13A.9.9,0,0,1,20.9,13.5Z"/><path class="b" d="M17.7,0H19a2.006,2.006,0,0,1,2,2v.5L17.6,5H21v5H17.7L21,12.5V13a2.006,2.006,0,0,1-2,2H17.7L13,11.4V15H8V11.4L3.3,15H2a2.006,2.006,0,0,1-2-2v-.5L3.3,10H0V5H3.4L0,2.5V2A2.006,2.006,0,0,1,2,0H3.3L8,3.5V0h5V3.5Z"/><path class="c" d="M12,9v6H9V9H0V6H9V0h3V6h9V9Zm.5-3.5V5.3L19.4,0a1.769,1.769,0,0,1,1.1.7L14.2,5.4ZM.2,1.1A1.962,1.962,0,0,1,1.1.2l7,5.3H6ZM8.5,9.5v.2L1.6,15a1.769,1.769,0,0,1-1.1-.7L6.8,9.6Zm12.3,4.4a1.962,1.962,0,0,1-.9.9l-7-5.3H15Z"/></svg>