<svg xmlns="http://www.w3.org/2000/svg" viewBox="0 0 21 15"><defs><style>.a,.c{fill:#e25950;}.b{fill:#f6f9fc;}.c{opacity:0.2;}.d{fill:#43458b;}.e,.f{fill:#fff;}.f{opacity:0.5;}</style></defs><g transform="translate(-475 -135)"><path class="a" d="M494,150H477a2,2,0,0,1-2-2v-7h8v-6h11a2,2,0,0,1,2,2v11A2,2,0,0,1,494,150Z"/><path class="b" d="M475,146h21v1H475Zm0-2h21v1H475Zm0-2h21v1H475Zm8-2h13v1H483Zm0-2h13v1H483Zm0-2h12.723a1.987,1.987,0,0,1,.277,1H483Zm12.723,13H475.277a1.985,1.985,0,0,1-.277-1h21a1.987,1.987,0,0,1-.277,1Z"/><path class="c" d="M494,150H477a2,2,0,0,1-2-2v-7h1v7a1,1,0,0,0,1,1h17a1,1,0,0,0,1-1V137a1,1,0,0,0-1-1H483v-1h11a2,2,0,0,1,2,2v11A2,2,0,0,1,494,150Z"/><path class="d" d="M475,142v-5a2,2,0,0,1,2-2h7v7Z"/><path class="e" d="M482.73,137.408a.7.7,0,1,1,.676-.7.7.7,0,0,1-.676.7Zm-.3,1.3a.7.7,0,1,1-.7-.7.7.7,0,0,1,.7.7Zm-1.7-1.3a.7.7,0,1,1,.677-.7.7.7,0,0,1-.677.7Zm-.3,1.3a.7.7,0,1,1-.7-.7.7.7,0,0,1,.7.7Zm-1.7-1.3a.7.7,0,1,1,.677-.7A.7.7,0,0,1,478.73,137.408Zm-.3,1.3a.7.7,0,1,1-.7-.7.7.7,0,0,1,.7.7Zm-1.7-1.3a.7.7,0,1,1,.676-.7.7.7,0,0,1-.676.7Zm0,2.592a.7.7,0,1,1-.678.7.7.7,0,0,1,.678-.7Zm2,0a.7.7,0,1,1-.678.7.7.7,0,0,1,.678-.7Zm2,0a.7.7,0,1,1-.678.7.7.7,0,0,1,.678-.7Zm2,0a.7.7,0,1,1-.678.7A.7.7,0,0,1,482.73,140Z"/><path class="f" d="M484,139.21a.7.7,0,1,1,0-1.011Zm-9-.975a.7.7,0,1,1,0,.939Z"/></g></svg>